<?xml version="1.0" encoding="utf-8"?>
<!-- Generator: Adobe Illustrator 22.0.1, SVG Export Plug-In . SVG Version: 6.00 Build 0)  -->
<svg version="1.1" id="Laag_1" xmlns="http://www.w3.org/2000/svg" xmlns:xlink="http://www.w3.org/1999/xlink" x="0px" y="0px"
	 viewBox="0 0 51 200" style="enable-background:new 0 0 51 200;" xml:space="preserve">
<style type="text/css">
	.st0{fill:#FFCC5A;}
	.st1{fill:#C4C3C2;}
</style>
<g>
	<polygon class="st0" points="25.5,11.9 31.4,30.1 50.5,30.1 35,41.3 41,59.4 25.5,48.2 10,59.4 16,41.3 0.5,30.1 19.6,30.1 	"/>
</g>
<g>
	<polygon class="st1" points="25.5,140.5 31.4,158.7 50.5,158.7 35,169.9 41,188.1 25.5,176.8 10,188.1 16,169.9 0.5,158.7 
		19.6,158.7 	"/>
</g>
<g>
	<g>
		<polygon class="st0" points="25.5,76.2 25.5,112.5 10,123.8 16,105.6 0.5,94.4 19.6,94.4 		"/>
	</g>
	<g>
		<polygon class="st1" points="25.5,76.2 25.5,112.6 41,123.8 35,105.6 50.5,94.4 31.4,94.4 		"/>
	</g>
</g>
</svg>
